<?xml version="1.0" encoding="UTF-8"?>
<svg width="38px" height="9px" viewBox="0 0 38 9" version="1.1" xmlns="http://www.w3.org/2000/svg" xmlns:xlink="http://www.w3.org/1999/xlink">
    <title>Path</title>
    <g id="Page-1" stroke="none" stroke-width="1" fill="none" fill-rule="evenodd">
        <g id="(網頁視覺v1)-Let’s-跨提-Let’s-Latte-＿交易查詢1" transform="translate(-729.000000, -803.000000)" fill="#724724" fill-rule="nonzero">
            <g id="資產-5" transform="translate(748.000000, 807.500000) scale(1, -1) translate(-748.000000, -807.500000) translate(729.000000, 803.000000)">
                <path d="M1.14115229,5.71918771 C1.43224116,4.73429968 2.23863602,4.03534689 3.15123898,3.47759668 C4.16723951,2.86488244 5.27075255,2.37804492 6.43188928,2.03027018 C8.72519759,1.32425726 11.3135284,1.13716384 13.6225712,1.88200747 C15.589388,2.5174191 17.3319876,3.94356521 17.8866299,5.79331907 C18.0447482,6.26558204 18.0863599,6.76308224 18.0085725,7.25123575 C17.9259662,7.66425331 17.6466783,8.33496559 17.1431732,8.48675837 C16.7498098,8.6138407 16.254172,8.26083423 16.0102867,7.99607939 C15.6802784,7.63302364 15.4984601,7.17964986 15.4949808,6.71113587 C15.4949808,5.65211648 16.3131765,4.75548007 17.0684341,4.04593708 C17.8590217,3.3216152 18.7469785,2.68839818 19.7118358,2.16088258 C21.255415,1.30264723 22.9854803,0.750221061 24.786223,0.540582916 C24.8806302,0.540582916 24.786223,0.540582916 24.786223,0.540582916 L24.9435683,0.540582916 L25.2739935,0.519402528 C25.5926178,0.519402528 25.9073085,0.501752205 26.2259328,0.501752205 C27.1144256,0.508343639 28.0009459,0.577985372 28.8772018,0.710026018 C30.0762432,0.891881829 31.2490895,1.1926015 32.3742019,1.60666243 C33.3839016,1.94670366 34.3167588,2.44779844 35.1277453,3.0857595 C35.9478057,3.75523211 36.5236212,4.63122959 36.7798714,5.59916551 C37.006389,6.52486768 36.4272953,7.45665878 35.4306351,7.77015525 C35.2310804,7.84911846 35.0154127,7.88999056 34.7973201,7.89017745 C34.1888822,7.90091159 33.5928539,7.73500002 33.0979905,7.41714879 C32.7046271,7.1665142 32.1460512,6.71113587 32.0949139,6.2592876 C32.0280422,5.65917661 32.7911671,5.59916551 33.275004,5.63093609 C33.5611853,5.65656332 33.8479447,5.58752101 34.0813988,5.43678254 C34.2269433,5.31323028 34.2544787,5.16496756 33.9948589,5.15084731 C33.0822559,5.09436627 31.4025945,5.2214486 31.0052975,6.15691572 C30.8007485,6.62994438 31.2177137,7.09944297 31.5638734,7.42067885 C31.9931375,7.81910628 32.5382331,8.10160297 33.1373268,8.23612378 C34.8327228,8.64208121 37.5941335,7.96783887 37.9599614,6.18515624 C38.168444,5.15084731 37.5272617,4.1341887 36.8585441,3.33286403 C36.050031,2.46090351 35.0096685,1.78587534 33.8335799,1.3701481 C31.4600315,0.417967081 28.8802509,-0.0486721689 26.2810037,0.00401309418 C24.4494307,0.0417477421 22.6438945,0.401547503 20.9666649,1.06303248 C19.6994361,1.54763573 18.5090582,2.18027818 17.4263948,2.94455692 C16.3839819,3.68940055 15.3061664,4.57191671 14.7082541,5.65917661 C14.1850808,6.61935419 14.2165499,7.81604609 15.1684892,8.55735966 C16.1204285,9.29867323 17.5090011,9.02685826 18.3507986,8.34555578 C19.3656761,7.52658079 19.3224061,6.20633663 18.8936401,5.12966692 C18.459155,4.08949834 17.7082286,3.17956943 16.726208,2.50329884 C14.440767,0.893589378 11.3449975,0.667665242 8.57178588,1.091273 C7.11421827,1.33118329 5.69876826,1.74430571 4.36279808,2.31973548 C3.06507102,2.81289107 1.88968692,3.53288851 0.905134278,4.43777425 C0.483800081,4.84688053 0.175269657,5.33897183 0.00433221708,5.87451055 C-0.0782740855,6.16044579 1.04674508,6.01571314 1.13721865,5.71918771 L1.14115229,5.71918771 Z" id="Path"></path>
            </g>
        </g>
    </g>
</svg>